<mxfile host="65bd71144e">
    <diagram name="Page-1" id="5S37cRQ1lA_S7baEY63b">
        <mxGraphModel dx="929" dy="960" grid="1" gridSize="10" guides="1" tooltips="1" connect="1" arrows="1" fold="1" page="1" pageScale="1" pageWidth="827" pageHeight="1169" background="none" math="0" shadow="0">
            <root>
                <mxCell id="0"/>
                <mxCell id="1" parent="0"/>
                <mxCell id="3W6jxhRXWwexcsXHKOYO-10" style="edgeStyle=orthogonalEdgeStyle;rounded=0;orthogonalLoop=1;jettySize=auto;html=1;dashed=1;endArrow=open;endFill=0;strokeWidth=2;entryX=-0.011;entryY=0.412;entryDx=0;entryDy=0;entryPerimeter=0;" parent="1" source="3W6jxhRXWwexcsXHKOYO-1" target="3W6jxhRXWwexcsXHKOYO-9" edge="1">
                    <mxGeometry relative="1" as="geometry">
                        <mxPoint x="290" y="110" as="targetPoint"/>
                    </mxGeometry>
                </mxCell>
                <mxCell id="3W6jxhRXWwexcsXHKOYO-1" value="DecoratorShapeTest" style="swimlane;fontStyle=1;align=center;verticalAlign=top;childLayout=stackLayout;horizontal=1;startSize=26;horizontalStack=0;resizeParent=1;resizeParentMax=0;resizeLast=0;collapsible=1;marginBottom=0;glass=0;swimlaneLine=1;rounded=0;" parent="1" vertex="1">
                    <mxGeometry x="40" y="80" width="160" height="60" as="geometry"/>
                </mxCell>
                <mxCell id="3W6jxhRXWwexcsXHKOYO-3" value="" style="line;strokeWidth=1;fillColor=none;align=left;verticalAlign=middle;spacingTop=-1;spacingLeft=3;spacingRight=3;rotatable=0;labelPosition=right;points=[];portConstraint=eastwest;strokeColor=inherit;rounded=0;" parent="3W6jxhRXWwexcsXHKOYO-1" vertex="1">
                    <mxGeometry y="26" width="160" height="8" as="geometry"/>
                </mxCell>
                <mxCell id="3W6jxhRXWwexcsXHKOYO-4" value="+ main(args:String[]): void" style="text;strokeColor=none;fillColor=none;align=left;verticalAlign=top;spacingLeft=4;spacingRight=4;overflow=hidden;rotatable=0;points=[[0,0.5],[1,0.5]];portConstraint=eastwest;rounded=0;" parent="3W6jxhRXWwexcsXHKOYO-1" vertex="1">
                    <mxGeometry y="34" width="160" height="26" as="geometry"/>
                </mxCell>
                <mxCell id="3W6jxhRXWwexcsXHKOYO-9" value="&lt;p style=&quot;margin:0px;margin-top:4px;text-align:center;&quot;&gt;&lt;i&gt;&amp;lt;&amp;lt;Interface&amp;gt;&amp;gt;&lt;/i&gt;&lt;br&gt;&lt;b&gt;Shape&lt;/b&gt;&lt;/p&gt;&lt;hr size=&quot;1&quot;&gt;&lt;p style=&quot;margin:0px;margin-left:4px;&quot;&gt;+ draw(): void&lt;br&gt;&lt;/p&gt;" style="verticalAlign=top;align=left;overflow=fill;fontSize=12;fontFamily=Helvetica;html=1;glass=0;rounded=0;" parent="1" vertex="1">
                    <mxGeometry x="319" y="81" width="190" height="70" as="geometry"/>
                </mxCell>
                <mxCell id="3W6jxhRXWwexcsXHKOYO-16" style="edgeStyle=orthogonalEdgeStyle;rounded=0;orthogonalLoop=1;jettySize=auto;html=1;entryX=0.136;entryY=0.998;entryDx=0;entryDy=0;dashed=1;strokeWidth=2;endArrow=block;endFill=0;exitX=0.5;exitY=0;exitDx=0;exitDy=0;entryPerimeter=0;" parent="1" source="3W6jxhRXWwexcsXHKOYO-11" target="3W6jxhRXWwexcsXHKOYO-9" edge="1">
                    <mxGeometry relative="1" as="geometry">
                        <Array as="points">
                            <mxPoint x="120" y="215"/>
                            <mxPoint x="345" y="215"/>
                        </Array>
                    </mxGeometry>
                </mxCell>
                <mxCell id="3W6jxhRXWwexcsXHKOYO-11" value="Circle" style="swimlane;fontStyle=1;align=center;verticalAlign=top;childLayout=stackLayout;horizontal=1;startSize=26;horizontalStack=0;resizeParent=1;resizeParentMax=0;resizeLast=0;collapsible=1;marginBottom=0;glass=0;swimlaneLine=1;rounded=0;" parent="1" vertex="1">
                    <mxGeometry x="40" y="270" width="160" height="60" as="geometry"/>
                </mxCell>
                <mxCell id="3W6jxhRXWwexcsXHKOYO-12" value="" style="line;strokeWidth=1;fillColor=none;align=left;verticalAlign=middle;spacingTop=-1;spacingLeft=3;spacingRight=3;rotatable=0;labelPosition=right;points=[];portConstraint=eastwest;strokeColor=inherit;rounded=0;" parent="3W6jxhRXWwexcsXHKOYO-11" vertex="1">
                    <mxGeometry y="26" width="160" height="8" as="geometry"/>
                </mxCell>
                <mxCell id="3W6jxhRXWwexcsXHKOYO-13" value="+ draw(): void" style="text;strokeColor=none;fillColor=none;align=left;verticalAlign=top;spacingLeft=4;spacingRight=4;overflow=hidden;rotatable=0;points=[[0,0.5],[1,0.5]];portConstraint=eastwest;rounded=0;" parent="3W6jxhRXWwexcsXHKOYO-11" vertex="1">
                    <mxGeometry y="34" width="160" height="26" as="geometry"/>
                </mxCell>
                <mxCell id="3W6jxhRXWwexcsXHKOYO-21" style="edgeStyle=orthogonalEdgeStyle;rounded=0;orthogonalLoop=1;jettySize=auto;html=1;entryX=0.75;entryY=1;entryDx=0;entryDy=0;dashed=1;strokeWidth=2;endArrow=block;endFill=0;" parent="1" source="3W6jxhRXWwexcsXHKOYO-17" target="3W6jxhRXWwexcsXHKOYO-9" edge="1">
                    <mxGeometry relative="1" as="geometry"/>
                </mxCell>
                <mxCell id="3W6jxhRXWwexcsXHKOYO-17" value="&lt;&lt;abstract&gt;&gt;&#10;ShapeDecorator" style="swimlane;fontStyle=1;align=center;verticalAlign=top;childLayout=stackLayout;horizontal=1;startSize=40;horizontalStack=0;resizeParent=1;resizeParentMax=0;resizeLast=0;collapsible=1;marginBottom=0;glass=0;swimlaneLine=1;rounded=0;" parent="1" vertex="1">
                    <mxGeometry x="450" y="270" width="350" height="126" as="geometry"/>
                </mxCell>
                <mxCell id="8" value="+ decoratedShape: Shape" style="text;strokeColor=default;fillColor=none;align=left;verticalAlign=top;spacingLeft=4;spacingRight=4;overflow=hidden;rotatable=0;points=[[0,0.5],[1,0.5]];portConstraint=eastwest;rounded=0;" vertex="1" parent="3W6jxhRXWwexcsXHKOYO-17">
                    <mxGeometry y="40" width="350" height="26" as="geometry"/>
                </mxCell>
                <mxCell id="3W6jxhRXWwexcsXHKOYO-18" value="" style="line;strokeWidth=1;fillColor=none;align=left;verticalAlign=middle;spacingTop=-1;spacingLeft=3;spacingRight=3;rotatable=0;labelPosition=right;points=[];portConstraint=eastwest;strokeColor=inherit;rounded=0;" parent="3W6jxhRXWwexcsXHKOYO-17" vertex="1">
                    <mxGeometry y="66" width="350" height="8" as="geometry"/>
                </mxCell>
                <mxCell id="3W6jxhRXWwexcsXHKOYO-19" value="+ ShapeDecorator(decoratedShape: Shape): void" style="text;strokeColor=default;fillColor=none;align=left;verticalAlign=top;spacingLeft=4;spacingRight=4;overflow=hidden;rotatable=0;points=[[0,0.5],[1,0.5]];portConstraint=eastwest;rounded=0;" parent="3W6jxhRXWwexcsXHKOYO-17" vertex="1">
                    <mxGeometry y="74" width="350" height="26" as="geometry"/>
                </mxCell>
                <mxCell id="3W6jxhRXWwexcsXHKOYO-34" value="+ draw(): void" style="text;strokeColor=none;fillColor=none;align=left;verticalAlign=top;spacingLeft=4;spacingRight=4;overflow=hidden;rotatable=0;points=[[0,0.5],[1,0.5]];portConstraint=eastwest;rounded=0;" parent="3W6jxhRXWwexcsXHKOYO-17" vertex="1">
                    <mxGeometry y="100" width="350" height="26" as="geometry"/>
                </mxCell>
                <mxCell id="3W6jxhRXWwexcsXHKOYO-32" style="edgeStyle=orthogonalEdgeStyle;rounded=0;orthogonalLoop=1;jettySize=auto;html=1;entryX=0.263;entryY=1.038;entryDx=0;entryDy=0;entryPerimeter=0;strokeWidth=2;fontFamily=Helvetica;fontSize=12;fontColor=default;endArrow=block;endFill=0;" parent="1" source="3W6jxhRXWwexcsXHKOYO-22" edge="1">
                    <mxGeometry relative="1" as="geometry">
                        <mxPoint x="542.05" y="396.98800000000006" as="targetPoint"/>
                        <Array as="points">
                            <mxPoint x="414" y="450"/>
                            <mxPoint x="542" y="450"/>
                        </Array>
                    </mxGeometry>
                </mxCell>
                <mxCell id="3W6jxhRXWwexcsXHKOYO-22" value="RedShapeDecorator" style="swimlane;fontStyle=1;align=center;verticalAlign=top;childLayout=stackLayout;horizontal=1;startSize=26;horizontalStack=0;resizeParent=1;resizeParentMax=0;resizeLast=0;collapsible=1;marginBottom=0;glass=0;swimlaneLine=1;rounded=0;" parent="1" vertex="1">
                    <mxGeometry x="313.5" y="480" width="201" height="86" as="geometry"/>
                </mxCell>
                <mxCell id="3W6jxhRXWwexcsXHKOYO-23" value="" style="line;strokeWidth=1;fillColor=none;align=left;verticalAlign=middle;spacingTop=-1;spacingLeft=3;spacingRight=3;rotatable=0;labelPosition=right;points=[];portConstraint=eastwest;strokeColor=inherit;rounded=0;" parent="3W6jxhRXWwexcsXHKOYO-22" vertex="1">
                    <mxGeometry y="26" width="201" height="8" as="geometry"/>
                </mxCell>
                <mxCell id="3W6jxhRXWwexcsXHKOYO-24" value="+ draw(): void" style="text;strokeColor=none;fillColor=none;align=left;verticalAlign=top;spacingLeft=4;spacingRight=4;overflow=hidden;rotatable=0;points=[[0,0.5],[1,0.5]];portConstraint=eastwest;rounded=0;" parent="3W6jxhRXWwexcsXHKOYO-22" vertex="1">
                    <mxGeometry y="34" width="201" height="26" as="geometry"/>
                </mxCell>
                <mxCell id="3W6jxhRXWwexcsXHKOYO-26" value="- setRedBorder(): void" style="text;strokeColor=none;fillColor=none;align=left;verticalAlign=top;spacingLeft=4;spacingRight=4;overflow=hidden;rotatable=0;points=[[0,0.5],[1,0.5]];portConstraint=eastwest;rounded=0;" parent="3W6jxhRXWwexcsXHKOYO-22" vertex="1">
                    <mxGeometry y="60" width="201" height="26" as="geometry"/>
                </mxCell>
                <mxCell id="3W6jxhRXWwexcsXHKOYO-33" style="edgeStyle=orthogonalEdgeStyle;rounded=0;orthogonalLoop=1;jettySize=auto;html=1;entryX=0.656;entryY=1;entryDx=0;entryDy=0;entryPerimeter=0;strokeWidth=2;fontFamily=Helvetica;fontSize=12;fontColor=default;endArrow=block;endFill=0;" parent="1" source="3W6jxhRXWwexcsXHKOYO-27" edge="1">
                    <mxGeometry relative="1" as="geometry">
                        <mxPoint x="679.5999999999999" y="396" as="targetPoint"/>
                    </mxGeometry>
                </mxCell>
                <mxCell id="3W6jxhRXWwexcsXHKOYO-27" value="GreenShapeDecorator" style="swimlane;fontStyle=1;align=center;verticalAlign=top;childLayout=stackLayout;horizontal=1;startSize=26;horizontalStack=0;resizeParent=1;resizeParentMax=0;resizeLast=0;collapsible=1;marginBottom=0;glass=0;swimlaneLine=1;rounded=0;" parent="1" vertex="1">
                    <mxGeometry x="580" y="480" width="201" height="86" as="geometry"/>
                </mxCell>
                <mxCell id="3W6jxhRXWwexcsXHKOYO-28" value="" style="line;strokeWidth=1;fillColor=none;align=left;verticalAlign=middle;spacingTop=-1;spacingLeft=3;spacingRight=3;rotatable=0;labelPosition=right;points=[];portConstraint=eastwest;strokeColor=inherit;rounded=0;" parent="3W6jxhRXWwexcsXHKOYO-27" vertex="1">
                    <mxGeometry y="26" width="201" height="8" as="geometry"/>
                </mxCell>
                <mxCell id="3W6jxhRXWwexcsXHKOYO-29" value="+ draw(): void" style="text;strokeColor=none;fillColor=none;align=left;verticalAlign=top;spacingLeft=4;spacingRight=4;overflow=hidden;rotatable=0;points=[[0,0.5],[1,0.5]];portConstraint=eastwest;rounded=0;" parent="3W6jxhRXWwexcsXHKOYO-27" vertex="1">
                    <mxGeometry y="34" width="201" height="26" as="geometry"/>
                </mxCell>
                <mxCell id="3W6jxhRXWwexcsXHKOYO-31" value="- setGreenBorder(): void" style="text;strokeColor=none;fillColor=none;align=left;verticalAlign=top;spacingLeft=4;spacingRight=4;overflow=hidden;rotatable=0;points=[[0,0.5],[1,0.5]];portConstraint=eastwest;rounded=0;" parent="3W6jxhRXWwexcsXHKOYO-27" vertex="1">
                    <mxGeometry y="60" width="201" height="26" as="geometry"/>
                </mxCell>
                <mxCell id="2" value="Rectangle" style="swimlane;fontStyle=1;align=center;verticalAlign=top;childLayout=stackLayout;horizontal=1;startSize=26;horizontalStack=0;resizeParent=1;resizeParentMax=0;resizeLast=0;collapsible=1;marginBottom=0;glass=0;swimlaneLine=1;rounded=0;" vertex="1" parent="1">
                    <mxGeometry x="210" y="270" width="160" height="60" as="geometry"/>
                </mxCell>
                <mxCell id="3" value="" style="line;strokeWidth=1;fillColor=none;align=left;verticalAlign=middle;spacingTop=-1;spacingLeft=3;spacingRight=3;rotatable=0;labelPosition=right;points=[];portConstraint=eastwest;strokeColor=inherit;rounded=0;" vertex="1" parent="2">
                    <mxGeometry y="26" width="160" height="8" as="geometry"/>
                </mxCell>
                <mxCell id="4" value="+ draw(): void" style="text;strokeColor=none;fillColor=none;align=left;verticalAlign=top;spacingLeft=4;spacingRight=4;overflow=hidden;rotatable=0;points=[[0,0.5],[1,0.5]];portConstraint=eastwest;rounded=0;" vertex="1" parent="2">
                    <mxGeometry y="34" width="160" height="26" as="geometry"/>
                </mxCell>
                <mxCell id="6" style="edgeStyle=orthogonalEdgeStyle;rounded=0;orthogonalLoop=1;jettySize=auto;html=1;entryX=0.373;entryY=0.998;entryDx=0;entryDy=0;dashed=1;strokeWidth=2;endArrow=block;endFill=0;exitX=0.5;exitY=0;exitDx=0;exitDy=0;entryPerimeter=0;" edge="1" parent="1" source="2" target="3W6jxhRXWwexcsXHKOYO-9">
                    <mxGeometry relative="1" as="geometry">
                        <Array as="points">
                            <mxPoint x="290" y="225"/>
                            <mxPoint x="390" y="225"/>
                        </Array>
                        <mxPoint x="130" y="280" as="sourcePoint"/>
                        <mxPoint x="354.8399999999999" y="160.8599999999999" as="targetPoint"/>
                    </mxGeometry>
                </mxCell>
            </root>
        </mxGraphModel>
    </diagram>
</mxfile>